<?xml version="1.0" encoding="utf-8"?>
<!-- Generator: Adobe Illustrator 21.0.2, SVG Export Plug-In . SVG Version: 6.00 Build 0)  -->
<svg version="1.1" id="Layer_1" xmlns="http://www.w3.org/2000/svg" xmlns:xlink="http://www.w3.org/1999/xlink" x="0px" y="0px"
	 viewBox="0 0 277.6 70.1" style="enable-background:new 0 0 277.6 70.1;" xml:space="preserve">
<g transform="matrix(1 0 0 -1 0 0)">
	<g>
		<path id="E1-MJMATHI-72" d="M31.9-37.4C31.9-37.3,31.9-37.3,31.9-37.4c0,0.1,0,0.2,0.1,0.3c0,0.1,0.1,0.2,0.1,0.3
			c0,0.1,0.1,0.2,0.2,0.4c0.1,0.1,0.1,0.2,0.2,0.3c0.1,0.1,0.2,0.2,0.3,0.2c0.1,0.1,0.2,0.1,0.4,0.1c0.2,0,0.4,0,0.5-0.1
			s0.3-0.2,0.3-0.2s0.1-0.1,0.1-0.2c0,0,0-0.1,0-0.1c0,0,0,0,0.1,0.1c0.3,0.4,0.7,0.6,1.2,0.6h0c0.3,0,0.6-0.1,0.8-0.4
			c0.1-0.1,0.1-0.3,0.1-0.4c0-0.2,0-0.4-0.1-0.5s-0.2-0.2-0.3-0.2c-0.1,0-0.2-0.1-0.3,0c-0.1,0-0.3,0-0.3,0.1
			c-0.1,0.1-0.1,0.2-0.1,0.3c0,0.3,0.2,0.6,0.6,0.7c-0.2,0.1-0.3,0.1-0.4,0.1c-0.4,0-0.8-0.3-1.1-0.8c-0.1-0.1-0.1-0.2-0.2-0.4
			c0-0.1-0.2-0.6-0.4-1.4c-0.2-1-0.4-1.5-0.4-1.6c-0.1-0.2-0.2-0.3-0.5-0.3c-0.1,0-0.2,0-0.2,0.1s-0.1,0.1-0.1,0.1c0,0,0,0.1,0,0.1
			c0,0.1,0.1,0.7,0.4,1.8c0.3,1.1,0.4,1.8,0.4,1.9c0,0.3-0.1,0.4-0.3,0.4c-0.2,0-0.3-0.1-0.4-0.3c-0.1-0.2-0.2-0.4-0.3-0.7
			c-0.1-0.2-0.1-0.4-0.1-0.4c0,0-0.1,0-0.2,0L31.9-37.4C31.9-37.4,31.9-37.4,31.9-37.4z"/>
	</g>
	<g transform="translate(622,0)">
		<g>
			<path id="E1-MJMAIN-28" d="M-582.7-37.8c0,0.5,0,1,0.1,1.4c0.1,0.4,0.2,0.8,0.2,1.2s0.2,0.6,0.4,0.9s0.3,0.5,0.4,0.7
				c0.1,0.2,0.3,0.4,0.5,0.6c0.2,0.2,0.3,0.3,0.4,0.4s0.1,0.1,0.3,0.2h0.1h0c0.1,0,0.2,0,0.2-0.1c0,0-0.1-0.1-0.2-0.2
				c-0.1-0.1-0.3-0.3-0.4-0.6c-0.2-0.3-0.3-0.6-0.5-0.9c-0.2-0.4-0.3-0.9-0.5-1.5c-0.1-0.6-0.2-1.3-0.2-2.1c0-0.8,0.1-1.4,0.2-2.1
				c0.1-0.6,0.3-1.1,0.4-1.5s0.3-0.7,0.5-0.9c0.2-0.2,0.3-0.4,0.5-0.6c0.1-0.1,0.2-0.2,0.2-0.2c0-0.1-0.1-0.1-0.2-0.1h0h-0.1
				l-0.3,0.3c-0.7,0.6-1.2,1.4-1.5,2.3C-582.5-39.7-582.7-38.7-582.7-37.8z"/>
		</g>
		<g>
			<path id="E1-MJMATHI-3C6" d="M-578.5-38.2c0-0.2,0.1-0.5,0.2-0.7c0.1-0.2,0.2-0.3,0.4-0.4s0.3-0.2,0.5-0.2
				c0.2-0.1,0.3-0.1,0.4-0.1l0.2,0l0,0l0.1,0.4c0.1,0.4,0.2,0.8,0.4,1.1s0.2,0.6,0.4,0.9c0.2,0.3,0.3,0.6,0.5,0.8
				c0.2,0.2,0.4,0.4,0.6,0.5c0.3,0.1,0.5,0.2,0.8,0.2c0.3,0,0.6-0.1,0.9-0.3c0.3-0.2,0.4-0.6,0.4-1.2c0-0.6-0.2-1.1-0.5-1.6
				c-0.3-0.5-0.7-0.9-1.3-1.3c-0.5-0.3-1.1-0.5-1.7-0.5c-0.2,0-0.3,0-0.3,0l-0.1-0.4c0-0.3-0.1-0.5-0.2-0.8
				c-0.1-0.3-0.1-0.5-0.1-0.6c0-0.2-0.1-0.3-0.3-0.4c-0.1,0-0.2-0.1-0.3-0.1c-0.2,0-0.3,0.1-0.3,0.4c0,0.1,0.2,0.7,0.6,2l-0.1,0
				c0,0-0.1,0-0.2,0.1c-0.1,0-0.1,0.1-0.2,0.1s-0.2,0.1-0.3,0.2s-0.2,0.1-0.3,0.2s-0.2,0.2-0.3,0.3c-0.1,0.1-0.2,0.2-0.2,0.3
				c-0.1,0.1-0.1,0.3-0.2,0.4c0,0.2-0.1,0.3-0.1,0.5c0,0.3,0.1,0.8,0.3,1.3c0.2,0.5,0.4,1,0.8,1.3h0.1c0.2,0,0.2,0,0.2-0.1
				c0,0,0-0.1-0.1-0.2c-0.3-0.3-0.5-0.7-0.7-1.2C-578.4-37.7-578.4-38-578.5-38.2z M-573.3-37.5c0,0.3-0.1,0.5-0.3,0.7
				c-0.2,0.2-0.4,0.3-0.7,0.3c-0.4,0-0.7-0.1-1-0.4c-0.3-0.3-0.6-0.7-0.8-1.2c-0.1-0.2-0.2-0.6-0.3-1.2l-0.1-0.5c0.1,0,0.2,0,0.2,0
				c0.8,0,1.5,0.2,2.1,0.7C-573.6-38.5-573.3-38-573.3-37.5z"/>
		</g>
		<g>
			<path id="E1-MJMAIN-29" d="M-571.7-32.4L-571.7-32.4c0.1,0,0.1,0,0.2,0h0.1l0.3-0.3c0.7-0.6,1.2-1.4,1.5-2.3
				c0.3-0.9,0.5-1.9,0.5-2.8c0-0.5,0-1-0.1-1.4c-0.1-0.5-0.2-0.8-0.2-1.2c-0.1-0.3-0.2-0.6-0.4-0.9c-0.2-0.3-0.3-0.6-0.4-0.7
				c-0.1-0.2-0.2-0.3-0.4-0.5c-0.2-0.2-0.3-0.3-0.3-0.4s-0.1-0.1-0.2-0.2c0,0,0,0,0,0h-0.1c-0.1,0-0.1,0-0.1,0c0,0,0,0-0.1,0
				c0,0,0,0.1,0,0.1c0,0,0,0.1,0.1,0.1c1.1,1.2,1.7,2.9,1.7,5.1s-0.6,4-1.7,5.1c-0.1,0.1-0.1,0.1-0.1,0.1
				C-571.8-32.5-571.7-32.4-571.7-32.4z"/>
		</g>
	</g>
	<g>
		<path id="E1-MJMAIN-3D" d="M57.5-36.7c0,0.1,0.1,0.2,0.2,0.2h6.8c0.1-0.1,0.2-0.1,0.2-0.2c0-0.1-0.1-0.1-0.2-0.2l-3.4,0h-3.4
			C57.5-36.9,57.5-36.8,57.5-36.7z M57.5-38.8c0,0.1,0.1,0.2,0.2,0.2h6.8c0.1-0.1,0.2-0.1,0.2-0.2c0-0.1-0.1-0.2-0.2-0.2h-6.8
			C57.5-39,57.5-38.9,57.5-38.8z"/>
	</g>
	<g transform="translate(3408,0)">
		<g transform="translate(0,2385)">
			<g>
				<path id="E1-MJSZ4-239B" d="M-3330.7-2399.9C-3330.7-2400-3330.7-2400-3330.7-2399.9c0.1-0.1,0-0.3-0.2-0.5
					c-0.2-0.3-0.4-0.6-0.7-1.1c-0.3-0.5-0.6-1.1-0.9-1.7c-0.3-0.7-0.7-1.5-1-2.5c-0.3-1-0.6-2.1-0.9-3.3c-0.6-2.7-0.8-6-0.8-9.8
					c0-0.2,0-0.4,0-0.4c0,0,0-0.1-0.1-0.1c0,0-0.2,0-0.5,0c-0.5,0-0.7,0-0.7,0c0,0-0.1,0.1-0.1,0.1s0,0.3,0,0.6
					c0,1.3,0.1,2.5,0.1,3.7c0.1,1.1,0.2,2.4,0.5,3.8c0.2,1.4,0.5,2.7,0.9,3.9c0.4,1.2,0.9,2.4,1.5,3.7c0.6,1.3,1.4,2.4,2.3,3.5
					c0,0,0,0,0.1,0.1c0,0,0,0,0,0.1c0,0,0,0,0,0c0,0,0,0,0,0c0,0,0,0,0,0c0,0,0,0,0.1,0c0,0,0.1,0,0.1,0h0.1H-3330.7z"/>
			</g>
			<g transform="translate(0,-2469.0555938234666) scale(1,1.1113799900378494)">
				<g>
					<path id="E1-MJSZ4-239C" d="M-3335.3,38.3C-3335.3,38.3-3335.3,38.3-3335.3,38.3c-0.1,0-0.2,0-0.3,0c-0.1,0-0.2,0-0.4,0
						c-0.4,0-0.6,0-0.6,0c0,0,0,0,0,0c0,0.1,0,0.5,0,1.4v1.9c0,2.2,0,3.3,0,3.3l0,0c0,0,0.3,0,0.8,0c0.1,0,0.2,0,0.3,0
						c0.1,0,0.1,0,0.2,0s0.1,0,0.1,0c0,0,0-0.1,0-0.2c0-0.1,0-0.5,0-1.3v-3.7C-3335.2,38.8-3335.3,38.3-3335.3,38.3z"/>
				</g>
			</g>
			<g>
				<path id="E1-MJSZ4-239D" d="M-3330.7-2445.5C-3330.7-2445.5-3330.7-2445.6-3330.7-2445.5l-0.2-0.1c-0.1,0-0.2,0-0.2,0
					c-0.1,0.1-0.1,0.1-0.2,0.2c-0.7,0.9-1.4,1.8-1.9,2.8s-1,2-1.4,3.1s-0.7,2.1-0.9,3.1c-0.3,1-0.4,2.1-0.6,3.2s-0.2,2.2-0.3,3.1
					c-0.1,0.9-0.1,2-0.1,3.1c0,0.4,0,0.6,0,0.6s0,0.1,0.1,0.1c0,0,0.3,0,0.8,0c0.3,0,0.5,0,0.5,0c0,0,0,0,0.1-0.1c0,0,0-0.2,0-0.4
					c0-4.2,0.4-7.8,1.1-10.9s1.8-5.6,3.4-7.8C-3330.7-2445.4-3330.7-2445.5-3330.7-2445.5z"/>
			</g>
		</g>
		<g transform="translate(880,0)">
			<g transform="translate(0,2338)">
				<g>
					<path id="E1-MJMAIN-2223" d="M-4208.8-2364.2L-4208.8-2364.2c-0.1,0-0.2,0.1-0.2,0.2v5.2l0,5.2c0.1,0.1,0.1,0.1,0.2,0.1
						c0.1,0,0.2-0.1,0.2-0.2v-10.4C-4208.6-2364.1-4208.7-2364.2-4208.8-2364.2L-4208.8-2364.2z"/>
				</g>
				<g transform="translate(0,-2638.7587831207065) scale(1,2.1970510304219824)">
					<g>
						<path id="E1-MJMAIN-2223_1_" d="M-4208.8,114.3L-4208.8,114.3c-0.1,0-0.2,0.1-0.2,0.2v5.2l0,5.2c0.1,0.1,0.1,0.1,0.2,0.1
							c0.1,0,0.2-0.1,0.2-0.2v-10.4C-4208.6,114.4-4208.7,114.3-4208.8,114.3L-4208.8,114.3z"/>
					</g>
				</g>
				<g>
					<path id="E1-MJMAIN-2223_2_" d="M-4208.8-2398.1L-4208.8-2398.1c-0.1,0-0.2,0.1-0.2,0.2v5.2l0,5.2c0.1,0.1,0.1,0.1,0.2,0.1
						c0.1,0,0.2-0.1,0.2-0.2v-10.4C-4208.6-2398.1-4208.7-2398.1-4208.8-2398.1L-4208.8-2398.1z"/>
				</g>
			</g>
			<g transform="translate(283,0)">
				<g transform="translate(120,0)">
					<rect x="-4608.9" y="-37.4" width="44.4" height="-0.6"/>
					<g transform="translate(60,1178)">
						<g>
							<path id="E1-MJMAIN-63" d="M-4664.3-1202.5c0,0-0.1,0-0.2,0c-0.2,0-0.3,0.1-0.4,0.2c-0.1,0.1-0.2,0.2-0.2,0.4
								c0,0.2,0.1,0.3,0.2,0.4c0,0,0.1,0.1,0.1,0.1c0,0,0,0-0.1,0c-0.2,0-0.4,0-0.5,0c-0.4,0-0.6-0.1-0.9-0.3
								c-0.3-0.3-0.5-0.9-0.5-1.7c0-0.6,0.1-1,0.3-1.4c0.3-0.4,0.7-0.7,1.2-0.7c0.3,0,0.5,0.1,0.7,0.3c0.2,0.2,0.3,0.4,0.4,0.7
								c0,0.1,0,0.1,0.1,0.1c0,0,0.1,0,0.2,0h0.2c0,0,0.1-0.1,0.1-0.1c0,0,0-0.1,0-0.2c0-0.1-0.1-0.2-0.2-0.4
								c-0.1-0.2-0.2-0.3-0.3-0.4c-0.1-0.1-0.3-0.2-0.5-0.3c-0.2-0.1-0.5-0.1-0.7-0.1c-0.6,0-1.2,0.2-1.6,0.7s-0.7,1-0.7,1.7
								c0,0.7,0.2,1.4,0.7,1.8c0.5,0.5,1,0.7,1.6,0.7s1-0.1,1.3-0.3s0.4-0.4,0.4-0.7c0-0.2-0.1-0.3-0.2-0.4L-4664.3-1202.5z"/>
						</g>
						<g>
							<path id="E1-MJMAIN-6F" d="M-4663.2-1203.5c0,0.7,0.2,1.3,0.7,1.8c0.5,0.5,1,0.7,1.7,0.8c0.6,0,1.2-0.2,1.7-0.7
								c0.5-0.5,0.7-1.1,0.7-1.8c0-0.7-0.2-1.3-0.7-1.7c-0.5-0.5-1-0.7-1.7-0.7c-0.7,0-1.3,0.2-1.7,0.7
								C-4662.9-1204.7-4663.2-1204.1-4663.2-1203.5z M-4660.8-1205.5c0.9,0,1.3,0.6,1.3,1.8v0.3v0.3c0,0.2,0,0.3,0,0.4
								c0,0.1,0,0.3-0.1,0.4c0,0.2-0.1,0.3-0.2,0.4c-0.1,0.1-0.2,0.2-0.3,0.3s-0.3,0.2-0.5,0.2c0,0-0.1,0-0.2,0
								c-0.2,0-0.4,0-0.6-0.1c-0.3-0.2-0.5-0.4-0.6-0.7c-0.1-0.3-0.1-0.6-0.1-1v-0.2c0-0.7,0.1-1.2,0.2-1.5
								C-4661.7-1205.2-4661.3-1205.5-4660.8-1205.5z"/>
						</g>
						<g>
							<path id="E1-MJMAIN-73" d="M-4654.9-1202.4c0,0.3-0.1,0.5-0.3,0.7c-0.2,0.2-0.5,0.3-0.8,0.3c-0.3,0-0.5,0-0.7-0.1
								c-0.2-0.1-0.3-0.3-0.3-0.6c0,0,0-0.1,0-0.1s0.1-0.1,0.2-0.3c0.1-0.1,0.3-0.2,0.5-0.3c0.1,0,0.3-0.1,0.5-0.1
								c0.2,0,0.3-0.1,0.5-0.1c0.1,0,0.2-0.1,0.3-0.1c0.1-0.1,0.2-0.1,0.4-0.2c0.1-0.1,0.2-0.2,0.3-0.4c0.1-0.2,0.2-0.4,0.2-0.7
								c0-0.4-0.1-0.8-0.4-1.1c-0.3-0.3-0.7-0.4-1.3-0.4h-0.1c-0.4,0-0.7,0.1-1,0.4l-0.1-0.1l-0.1-0.1c0,0-0.1-0.1-0.1-0.1l-0.1-0.1
								h-0.1h0c0,0-0.1,0-0.1,0.1v0.8v0.6c0,0.2,0,0.2,0,0.3c0,0,0.1,0,0.1,0.1h0.1c0.1,0,0.1,0,0.2,0c0,0,0-0.1,0.1-0.1
								c0-0.1,0-0.2,0.1-0.3s0.1-0.3,0.2-0.5c0.3-0.4,0.6-0.5,1-0.5c0.7,0,1,0.3,1,0.8c0,0.2-0.1,0.4-0.2,0.5
								c-0.1,0.2-0.4,0.3-0.9,0.4c-0.5,0.1-0.7,0.2-0.9,0.2c-0.3,0.1-0.5,0.3-0.6,0.5c-0.2,0.2-0.2,0.4-0.2,0.7
								c0,0.3,0.1,0.5,0.2,0.7c0.1,0.2,0.3,0.3,0.5,0.4c0.2,0.1,0.4,0.2,0.5,0.2c0.2,0,0.3,0.1,0.5,0.1h0.1c0.3,0,0.5-0.1,0.8-0.2
								l0.2-0.1l0.1,0.1c0.1,0.1,0.2,0.1,0.2,0.2h0.1h0c0,0,0.1,0,0.1-0.1v-1.4l-0.1-0.1h-0.3
								C-4654.8-1202.5-4654.9-1202.4-4654.9-1202.4z"/>
						</g>
						<g transform="translate(1353,0)">
							<g>
								<path id="E1-MJSZ2-28" d="M-6004.8-1204.8c0,0,0,0.6,0,1.7c0,1.1,0.1,2.1,0.3,3.1c0.2,1,0.4,1.8,0.7,2.5s0.6,1.3,0.9,1.9
									c0.4,0.6,0.7,1,1,1.3c0.3,0.3,0.6,0.6,0.9,0.9h0.3c0,0,0.1-0.1,0.1-0.1c0,0-0.1-0.1-0.2-0.2s-0.3-0.3-0.4-0.5
									s-0.4-0.5-0.6-0.8c-0.2-0.3-0.4-0.7-0.7-1.3c-0.2-0.5-0.4-1.1-0.6-1.7c-0.2-0.6-0.3-1.4-0.5-2.2s-0.2-1.8-0.2-2.8
									c0-0.8,0-1.5,0.1-2.1c0.1-1,0.3-2,0.5-2.8s0.5-1.6,0.8-2.1s0.6-1,0.8-1.4s0.5-0.7,0.7-0.8c0.2-0.2,0.3-0.3,0.3-0.3
									c0,0,0-0.1-0.1-0.1h-0.3c-0.3,0.3-0.6,0.6-0.9,0.9s-0.6,0.8-1,1.3s-0.7,1.2-0.9,1.9c-0.3,0.7-0.5,1.5-0.7,2.5
									L-6004.8-1204.8z"/>
							</g>
							<g transform="translate(602,0)">
								<g transform="translate(120,0)">
									<rect x="-6721" y="-1202.8" width="13" height="-0.6"/>
									<g transform="translate(60,605)">
										<g transform="scale(0.707)">
											<path id="E1-MJMATHI-6D" d="M-6780.2-1802.1c0,0,0,0.1,0,0.1c0,0.1,0,0.1,0.1,0.3c0.1,0.1,0.1,0.3,0.2,0.4
												c0.1,0.1,0.1,0.2,0.2,0.3c0.1,0.1,0.2,0.1,0.3,0.1c0.1,0,0.2,0,0.3-0.1s0.2-0.1,0.2-0.1c0-0.1,0.1-0.1,0.1-0.2
												c0-0.1,0.1-0.1,0.1-0.1l0-0.1c0,0,0,0,0,0l0.1,0.1c0.3,0.3,0.7,0.5,1.1,0.5c0.1,0,0.2,0,0.2,0s0.1,0,0.2-0.1
												c0.1,0,0.1-0.1,0.1-0.1c0,0,0.1-0.1,0.1-0.1c0,0,0.1-0.1,0.1-0.1c0,0,0-0.1,0.1-0.1c0,0,0-0.1,0-0.1c0,0,0,0,0-0.1
												s0,0,0-0.1l0.1,0.1c0.3,0.4,0.7,0.6,1.1,0.6c0.3,0,0.5-0.1,0.7-0.2c0.2-0.1,0.3-0.3,0.3-0.6c0-0.3-0.1-0.7-0.3-1.2
												c-0.2-0.5-0.3-0.9-0.3-1c0-0.1,0-0.1,0-0.1c0,0,0.1,0,0.1,0c0.1,0,0.3,0.1,0.4,0.2s0.2,0.4,0.3,0.6c0,0.1,0,0.1,0,0.1
												s0.1,0,0.1,0c0.1,0,0.2,0,0.2-0.1c0,0,0,0,0-0.1c0-0.1-0.1-0.3-0.2-0.4c-0.1-0.1-0.2-0.3-0.3-0.4s-0.3-0.2-0.5-0.2
												c-0.2,0-0.4,0.1-0.5,0.2c-0.1,0.1-0.2,0.3-0.2,0.4c0,0.1,0.1,0.4,0.3,0.9c0.2,0.5,0.3,0.9,0.3,1.2c0,0.3-0.1,0.4-0.3,0.4
												h0c-0.4,0-0.8-0.3-1.1-0.8l-0.1-0.1l-0.3-1c-0.2-0.7-0.3-1-0.3-1.1c-0.1-0.1-0.2-0.2-0.3-0.2c-0.1,0-0.1,0-0.2,0.1
												c0,0-0.1,0.1-0.1,0.1c0,0,0,0.1,0,0.1c0,0.1,0.1,0.4,0.3,1.1l0.3,1.1c0,0.1,0,0.2,0,0.3c0,0.3-0.1,0.4-0.3,0.4h0
												c-0.4,0-0.8-0.3-1.1-0.8l-0.1-0.1l-0.3-1c-0.2-0.7-0.3-1-0.3-1.1c-0.1-0.1-0.2-0.2-0.3-0.2c-0.1,0-0.1,0-0.2,0
												s-0.1,0.1-0.1,0.1s0,0.1,0,0.1c0,0.1,0.1,0.5,0.3,1.2c0.2,0.8,0.3,1.2,0.3,1.2c0,0.1,0,0.1,0,0.2c0,0.2-0.1,0.3-0.2,0.3
												c-0.1,0-0.2-0.1-0.3-0.2s-0.1-0.3-0.2-0.5c0-0.2-0.1-0.3-0.1-0.3c0,0-0.1,0-0.1,0L-6780.2-1802.1
												C-6780.2-1802.1-6780.2-1802.1-6780.2-1802.1z"/>
										</g>
										<g transform="scale(0.707)">
											<path id="E1-MJMATHI-3C6_1_" d="M-6772.9-1802.7c0-0.2,0-0.3,0.1-0.5c0.1-0.1,0.2-0.2,0.3-0.3c0.1-0.1,0.2-0.1,0.3-0.2
												c0.1,0,0.2-0.1,0.3-0.1l0.1,0l0,0l0.1,0.3c0.1,0.3,0.2,0.5,0.3,0.8c0.1,0.2,0.2,0.4,0.3,0.7c0.1,0.2,0.2,0.4,0.4,0.6
												c0.1,0.1,0.3,0.3,0.4,0.4c0.2,0.1,0.4,0.1,0.6,0.1c0.2,0,0.4-0.1,0.6-0.2c0.2-0.2,0.3-0.4,0.3-0.8c0-0.4-0.1-0.8-0.3-1.1
												c-0.2-0.4-0.5-0.7-0.9-0.9c-0.4-0.2-0.8-0.3-1.2-0.3c-0.1,0-0.2,0-0.2,0l-0.1-0.3c0-0.2-0.1-0.4-0.1-0.6
												s-0.1-0.3-0.1-0.4c0-0.1-0.1-0.2-0.2-0.3c-0.1,0-0.1,0-0.2,0c-0.2,0-0.2,0.1-0.2,0.3c0,0.1,0.1,0.5,0.4,1.4l0,0
												c0,0-0.1,0-0.1,0c0,0-0.1,0-0.2,0.1c-0.1,0-0.1,0.1-0.2,0.1s-0.1,0.1-0.2,0.1c-0.1,0.1-0.1,0.1-0.2,0.2
												c-0.1,0.1-0.1,0.2-0.2,0.2c-0.1,0.1-0.1,0.2-0.1,0.3c0,0.1,0,0.2,0,0.4c0,0.2,0.1,0.5,0.2,0.9c0.1,0.4,0.3,0.7,0.6,0.9
												h0.1c0.1,0,0.2,0,0.2-0.1c0,0,0-0.1-0.1-0.1c-0.2-0.2-0.4-0.5-0.5-0.8C-6772.9-1802.3-6772.9-1802.5-6772.9-1802.7z
												 M-6769.3-1802.2c0,0.2-0.1,0.4-0.2,0.5s-0.3,0.2-0.5,0.2c-0.2,0-0.5-0.1-0.7-0.3s-0.4-0.5-0.5-0.8
												c-0.1-0.2-0.1-0.4-0.2-0.8l-0.1-0.3c0.1,0,0.1,0,0.2,0c0.6,0,1.1,0.2,1.5,0.5
												C-6769.5-1802.9-6769.3-1802.6-6769.3-1802.2z"/>
										</g>
									</g>
									<g transform="scale(0.707)">
										<path id="E1-MJMAIN-34" d="M-6712.9-1210.4c-0.1,0-0.4,0-1,0c-0.6,0-0.9,0-1,0h-0.1v0.3h0.2c0.1,0,0.2,0,0.2,0
											s0.1,0,0.1,0c0.1,0,0.1,0,0.1,0c0,0,0,0,0.1,0.1c0,0,0,0.1,0,0.4v0.4h-2v0.3l1.1,1.8c0.8,1.2,1.2,1.8,1.2,1.8
											c0,0,0.1,0,0.2,0h0.1l0,0v-3.5h0.7v-0.3h-0.7v-0.4c0-0.2,0-0.3,0-0.4c0,0,0-0.1,0-0.1c0,0,0.2-0.1,0.4-0.1h0.2
											L-6712.9-1210.4L-6712.9-1210.4z M-6714.2-1208.8v2.5l-1.7-2.5l0.8,0H-6714.2z"/>
									</g>
								</g>
							</g>
							<g>
								<path id="E1-MJSZ2-29" d="M-5984.3-1193.6c0,0.1,0.1,0.1,0.2,0.1h0.1h0.1c0.3-0.3,0.6-0.6,0.9-0.9s0.6-0.8,1-1.3
									s0.7-1.2,0.9-1.9s0.5-1.5,0.7-2.5s0.3-2,0.3-3.1c0-1.1-0.1-2.1-0.3-3.1c-0.2-1-0.4-1.8-0.7-2.5c-0.3-0.7-0.6-1.3-0.9-1.9
									c-0.4-0.6-0.7-1-1-1.3c-0.3-0.3-0.6-0.6-0.9-0.9h-0.1c-0.1,0-0.2,0-0.2,0c0,0,0,0.1,0,0.1c0.2,0.2,0.5,0.5,0.8,1
									c1.2,1.7,2,3.8,2.2,6.5c0.1,0.6,0.1,1.3,0.1,2.1c0,0.8,0,1.5-0.1,2.1c-0.3,3.1-1.2,5.5-2.9,7.3
									C-5984.3-1193.6-5984.3-1193.6-5984.3-1193.6z"/>
							</g>
						</g>
					</g>
					<g>
						<path id="E1-MJMATHI-61" d="M-4589.3-46.1c0,0.7,0.3,1.4,0.8,2.1c0.5,0.7,1.2,1,1.8,1c0.4,0,0.7-0.2,1-0.5
							c0.1,0.2,0.3,0.3,0.5,0.3c0.1,0,0.2,0,0.2-0.1c0.1-0.1,0.1-0.1,0.1-0.2c0-0.1-0.1-0.7-0.4-1.7s-0.4-1.6-0.4-1.8
							c0-0.2,0-0.3,0.1-0.4s0.1-0.1,0.2-0.1c0.1,0,0.1,0,0.2,0.1c0.2,0.1,0.3,0.5,0.4,1c0,0.1,0.1,0.2,0.1,0.2c0,0,0.1,0,0.1,0h0
							c0.1,0,0.2,0,0.2-0.1c0,0,0-0.1-0.1-0.3c0-0.2-0.1-0.3-0.2-0.6s-0.2-0.4-0.3-0.5c-0.1-0.1-0.2-0.2-0.3-0.2c-0.1,0-0.1,0-0.3,0
							c-0.2,0-0.4,0.1-0.6,0.2c-0.2,0.1-0.3,0.2-0.3,0.3l-0.1,0.2c0,0,0,0,0,0c0,0,0,0,0,0c-0.4-0.4-0.9-0.6-1.3-0.6
							c-0.4,0-0.7,0.1-1,0.4C-4589.1-47.2-4589.3-46.8-4589.3-46.1z M-4585.9-44.3c0,0,0,0.1-0.1,0.2c0,0.1-0.1,0.2-0.2,0.4
							s-0.3,0.2-0.5,0.2c-0.3,0-0.5-0.1-0.7-0.3c-0.2-0.2-0.4-0.5-0.5-0.9c-0.2-0.6-0.4-1.2-0.4-1.8c0,0,0-0.1,0-0.1
							c0-0.1,0-0.1,0-0.1c0-0.3,0.1-0.5,0.2-0.7c0.1-0.1,0.3-0.2,0.5-0.2c0.3,0,0.5,0.1,0.8,0.4s0.4,0.4,0.5,0.5
							c0,0,0.1,0.4,0.3,1.2S-4585.9-44.4-4585.9-44.3z"/>
					</g>
				</g>
			</g>
			<g transform="translate(4650,2338)">
				<g>
					<path id="E1-MJMAIN-2223_3_" d="M-8808.8-2364.2L-8808.8-2364.2c-0.1,0-0.2,0.1-0.2,0.2v5.2l0,5.2c0.1,0.1,0.1,0.1,0.2,0.1
						c0.1,0,0.2-0.1,0.2-0.2v-10.4C-8808.6-2364.1-8808.7-2364.2-8808.8-2364.2L-8808.8-2364.2z"/>
				</g>
				<g transform="translate(0,-2638.7587831207065) scale(1,2.1970510304219824)">
					<g>
						<path id="E1-MJMAIN-2223_4_" d="M-8808.8,114.3L-8808.8,114.3c-0.1,0-0.2,0.1-0.2,0.2v5.2l0,5.2c0.1,0.1,0.1,0.1,0.2,0.1
							c0.1,0,0.2-0.1,0.2-0.2v-10.4C-8808.6,114.4-8808.7,114.3-8808.8,114.3L-8808.8,114.3z"/>
					</g>
				</g>
				<g>
					<path id="E1-MJMAIN-2223_5_" d="M-8808.8-2398.1L-8808.8-2398.1c-0.1,0-0.2,0.1-0.2,0.2v5.2l0,5.2c0.1,0.1,0.1,0.1,0.2,0.1
						c0.1,0,0.2-0.1,0.2-0.2v-10.4C-8808.6-2398.1-8808.7-2398.1-8808.8-2398.1L-8808.8-2398.1z"/>
				</g>
			</g>
			<g transform="translate(4933,2065)">
				<g transform="scale(0.707)">
					<path id="E1-MJMATHI-6E" d="M-9090.1-2081.1c0,0,0,0.1,0,0.1c0,0.1,0,0.1,0.1,0.3s0.1,0.3,0.2,0.4c0,0.1,0.1,0.2,0.3,0.3
						c0.1,0.1,0.2,0.1,0.3,0.1c0.2,0,0.3,0,0.5-0.1c0.1-0.1,0.2-0.2,0.2-0.3s0-0.1,0-0.2c0,0,0,0,0,0l0.1,0.1
						c0.3,0.3,0.7,0.5,1.1,0.5c0.3,0,0.5-0.1,0.7-0.2c0.2-0.1,0.3-0.3,0.3-0.6s-0.1-0.7-0.3-1.2c-0.2-0.5-0.3-0.9-0.3-1
						c0-0.1,0-0.2,0.1-0.2c0,0,0.1,0,0.1,0c0.1,0,0.3,0.1,0.4,0.3c0.1,0.2,0.2,0.4,0.3,0.6c0,0,0.1,0.1,0.2,0.1c0.1,0,0.2,0,0.2-0.1
						c0,0,0,0,0-0.1c0-0.1-0.1-0.3-0.2-0.4s-0.2-0.3-0.3-0.4s-0.3-0.2-0.5-0.2c-0.2,0-0.4,0.1-0.5,0.2c-0.1,0.1-0.2,0.3-0.2,0.4
						c0,0.1,0.1,0.4,0.3,0.9c0.2,0.5,0.3,0.9,0.3,1.2c0,0.3-0.1,0.4-0.3,0.4h0c-0.4,0-0.8-0.3-1.1-0.8l-0.1-0.1l-0.3-1
						c-0.2-0.7-0.3-1-0.3-1.1c-0.1-0.1-0.2-0.2-0.3-0.2c-0.1,0-0.1,0-0.2,0c0,0-0.1,0.1-0.1,0.1c0,0,0,0.1,0,0.1
						c0,0.1,0.1,0.5,0.3,1.2s0.3,1.2,0.3,1.2c0,0,0,0.1,0,0.2c0,0.2-0.1,0.3-0.2,0.3c-0.2,0-0.4-0.3-0.5-0.8c0-0.1,0-0.2,0-0.2
						c0,0-0.1,0-0.1,0L-9090.1-2081.1C-9090.1-2081.1-9090.1-2081.1-9090.1-2081.1z"/>
				</g>
				<g transform="scale(0.574)">
					<path id="E1-MJMAIN-32" d="M-9085-2082.2c-0.1,0-0.2,0-0.3,0.1c-0.1,0.1-0.1,0.2-0.1,0.3c0,0.3,0.1,0.5,0.3,0.8
						c0.2,0.2,0.5,0.3,0.8,0.3c0.4,0,0.7-0.1,0.9-0.3c0.3-0.2,0.4-0.5,0.4-0.9c0-0.2,0-0.3-0.1-0.5s-0.2-0.3-0.3-0.4
						c-0.1-0.1-0.3-0.3-0.5-0.5c-0.1-0.1-0.4-0.3-0.6-0.6l-0.4-0.3l0.5,0c0.6,0,1,0,1,0c0,0,0.1,0.2,0.1,0.5v0h0.2v0
						c0,0,0-0.2-0.1-0.6c0-0.4-0.1-0.6-0.1-0.6v0h-2.3v0.1v0.1c0,0,0,0.1,0,0.1c0,0,0.1,0.1,0.2,0.2c0.1,0.1,0.2,0.2,0.3,0.3
						c0,0,0.1,0.1,0.2,0.2c0.1,0.1,0.2,0.2,0.2,0.2c0,0,0.1,0.1,0.2,0.2c0.1,0.1,0.1,0.2,0.2,0.2c0,0,0.1,0.1,0.1,0.2
						c0.1,0.1,0.1,0.1,0.1,0.2c0,0.1,0.1,0.1,0.1,0.2c0,0.1,0.1,0.1,0.1,0.2c0,0.1,0,0.1,0,0.2c0,0.1,0,0.1,0,0.2
						c0,0.3-0.1,0.5-0.2,0.7s-0.3,0.3-0.6,0.3c-0.1,0-0.3,0-0.4-0.1c-0.1-0.1-0.2-0.1-0.2-0.2c0-0.1-0.1-0.1-0.1-0.1c0,0,0,0,0,0
						c0.1,0,0.2,0,0.2-0.1s0.1-0.2,0.1-0.3c0-0.1,0-0.2-0.1-0.3C-9084.8-2082.1-9084.9-2082.2-9085-2082.2z"/>
				</g>
			</g>
		</g>
		<g>
			<path id="E1-MJMAIN-2B" d="M-3264.7-37.9c0,0,0,0,0,0.1s0.1,0.2,0.2,0.2h3.2v1.6l0,1.6c0.1,0.1,0.1,0.1,0.2,0.1
				c0.1,0,0.2-0.1,0.2-0.2v-3.2h3.2c0.1-0.1,0.2-0.1,0.2-0.2s-0.1-0.2-0.2-0.2h-3.2v-3.2c-0.1-0.1-0.1-0.2-0.2-0.2h0h0
				c-0.1,0-0.2,0.1-0.2,0.2v3.2h-3.2c-0.1,0.1-0.2,0.1-0.2,0.2V-37.9z"/>
		</g>
		<g transform="translate(7929,0)">
			<g transform="translate(0,2338)">
				<g>
					<path id="E1-MJMAIN-2223_6_" d="M-11182-2364.2L-11182-2364.2c-0.1,0-0.2,0.1-0.2,0.2v5.2l0,5.2c0.1,0.1,0.1,0.1,0.2,0.1
						c0.1,0,0.2-0.1,0.2-0.2v-10.4C-11181.8-2364.1-11181.9-2364.2-11182-2364.2L-11182-2364.2z"/>
				</g>
				<g transform="translate(0,-2638.7587831207065) scale(1,2.1970510304219824)">
					<g>
						<path id="E1-MJMAIN-2223_7_" d="M-11182,114.3L-11182,114.3c-0.1,0-0.2,0.1-0.2,0.2v5.2l0,5.2c0.1,0.1,0.1,0.1,0.2,0.1
							c0.1,0,0.2-0.1,0.2-0.2v-10.4C-11181.8,114.4-11181.9,114.3-11182,114.3L-11182,114.3z"/>
					</g>
				</g>
				<g>
					<path id="E1-MJMAIN-2223_8_" d="M-11182-2398.1L-11182-2398.1c-0.1,0-0.2,0.1-0.2,0.2v5.2l0,5.2c0.1,0.1,0.1,0.1,0.2,0.1
						c0.1,0,0.2-0.1,0.2-0.2v-10.4C-11181.8-2398.1-11181.9-2398.1-11182-2398.1L-11182-2398.1z"/>
				</g>
			</g>
			<g transform="translate(283,0)">
				<g transform="translate(120,0)">
					<rect x="-11582.2" y="-37.4" width="43.2" height="-0.6"/>
					<g transform="translate(60,1178)">
						<g>
							<path id="E1-MJMAIN-73_1_" d="M-11638.4-1202.4c0,0.3-0.1,0.5-0.3,0.7c-0.2,0.2-0.5,0.3-0.8,0.3c-0.3,0-0.5,0-0.7-0.1
								c-0.2-0.1-0.3-0.3-0.3-0.6c0,0,0-0.1,0-0.1c0-0.1,0.1-0.1,0.2-0.3c0.1-0.1,0.3-0.2,0.5-0.3c0.1,0,0.3-0.1,0.5-0.1
								s0.3-0.1,0.5-0.1c0.1,0,0.2-0.1,0.3-0.1c0.1-0.1,0.2-0.1,0.4-0.2c0.1-0.1,0.2-0.2,0.3-0.4c0.1-0.2,0.2-0.4,0.2-0.7
								c0-0.4-0.1-0.8-0.4-1.1s-0.7-0.4-1.3-0.4h-0.1c-0.4,0-0.7,0.1-1,0.4l-0.1-0.1l-0.1-0.1c0,0-0.1-0.1-0.1-0.1l-0.1-0.1h-0.1h0
								c0,0-0.1,0-0.1,0.1v0.8v0.6c0,0.2,0,0.2,0,0.3s0,0,0.1,0.1h0.1c0.1,0,0.1,0,0.2,0s0-0.1,0.1-0.1c0-0.1,0-0.2,0.1-0.3
								s0.1-0.3,0.2-0.5c0.3-0.4,0.6-0.5,1-0.5c0.7,0,1,0.3,1,0.8c0,0.2-0.1,0.4-0.2,0.5c-0.1,0.2-0.4,0.3-0.9,0.4
								c-0.5,0.1-0.7,0.2-0.9,0.2c-0.3,0.1-0.5,0.3-0.6,0.5c-0.2,0.2-0.2,0.4-0.2,0.7c0,0.3,0.1,0.5,0.2,0.7s0.3,0.3,0.5,0.4
								s0.4,0.2,0.5,0.2c0.2,0,0.3,0.1,0.5,0.1h0.1c0.3,0,0.5-0.1,0.8-0.2l0.2-0.1l0.1,0.1c0.1,0.1,0.2,0.1,0.2,0.2h0.1h0
								c0,0,0.1,0,0.1-0.1v-1.4l-0.1-0.1h-0.3C-11638.3-1202.5-11638.4-1202.4-11638.4-1202.4z"/>
						</g>
						<g>
							<path id="E1-MJMAIN-69" d="M-11636.5-1199.2c0,0.2,0.1,0.4,0.2,0.5c0.1,0.1,0.3,0.2,0.5,0.2c0.2,0,0.3-0.1,0.4-0.2
								c0.1-0.1,0.2-0.3,0.2-0.5c0-0.2-0.1-0.4-0.2-0.5c-0.1-0.1-0.3-0.2-0.5-0.2c-0.2,0-0.3,0.1-0.5,0.2
								C-11636.4-1199.6-11636.5-1199.5-11636.5-1199.2z M-11634.6-1205.8c-0.1,0-0.5,0-1.1,0c-0.1,0-0.2,0-0.4,0s-0.4,0-0.5,0
								l-0.2,0h-0.1v0.5h0.2c0.2,0,0.4,0,0.5,0c0.1,0,0.1,0.1,0.1,0.1s0,0.2,0,0.5v1.1v0.9c0,0.4,0,0.6,0,0.7s-0.1,0.2-0.2,0.2
								c-0.1,0.1-0.3,0.1-0.5,0.1h-0.1v0.2c0,0.2,0,0.2,0,0.2l0.1,0c0.1,0,0.2,0,0.3,0c0.1,0,0.3,0,0.4,0c0.1,0,0.3,0,0.4,0
								c0.1,0,0.2,0,0.3,0c0.1,0,0.1,0,0.1,0h0v-4.1c0-0.1,0.1-0.1,0.1-0.1c0,0,0.2,0,0.4,0h0.2L-11634.6-1205.8L-11634.6-1205.8z"
								/>
						</g>
						<g>
							<path id="E1-MJMAIN-6E" d="M-11633.8-1205.3h0.2c0.3,0,0.4,0.1,0.5,0.2v0.1c0,0.1,0,0.1,0,0.2c0,0.1,0,0.2,0,0.3s0,0.3,0,0.4
								c0,0.2,0,0.3,0,0.5c0,0.2,0,0.5,0,0.7c0,0.3,0,0.5,0,0.6v0.2c0,0.1-0.1,0.2-0.2,0.3s-0.2,0.1-0.5,0.1h-0.2v0.2
								c0,0.2,0,0.2,0,0.2l0.1,0c0.1,0,0.2,0,0.3,0c0.1,0,0.3,0,0.4,0c0.1,0,0.3,0,0.4,0c0.1,0,0.2,0,0.3,0c0.1,0,0.1,0,0.1,0h0
								v-0.4c0-0.3,0-0.4,0-0.4c0,0,0,0,0.1,0.1c0,0,0.1,0.1,0.1,0.2c0.1,0.1,0.1,0.1,0.2,0.2c0.1,0.1,0.2,0.1,0.3,0.2
								c0.1,0.1,0.3,0.1,0.4,0.2c0.1,0,0.3,0.1,0.5,0.1c0.8,0,1.3-0.4,1.4-1.2c0-0.1,0-0.5,0-1.5v-0.9c0-0.3,0-0.4,0-0.5
								c0-0.1,0.1-0.1,0.1-0.1c0.2,0,0.3,0,0.5,0h0.2v-0.5h-0.1l-0.3,0c-0.2,0-0.3,0-0.5,0c-0.2,0-0.3,0-0.4,0c-0.7,0-1.1,0-1.2,0
								h-0.1v0.5h0.2c0.4,0,0.7,0.1,0.7,0.2c0,0,0,0.5,0,1.5c0,1,0,1.5,0,1.5c0,0.2-0.1,0.4-0.2,0.5s-0.2,0.2-0.3,0.2
								c-0.1,0-0.2,0-0.3,0c-0.3,0-0.6-0.1-0.8-0.4c-0.2-0.2-0.3-0.4-0.4-0.6c-0.1-0.2-0.1-0.5-0.1-0.9v-0.7v-0.6c0-0.2,0-0.4,0-0.4
								c0-0.1,0-0.1,0-0.1c0,0,0,0,0.1-0.1c0.2,0,0.3,0,0.5,0h0.2v-0.5h-0.1l-0.2,0c-0.2,0-0.4,0-0.5,0c-0.2,0-0.3,0-0.4,0
								c-0.7,0-1.1,0-1.2,0h-0.1v0.5H-11633.8z"/>
						</g>
						<g transform="translate(1243,0)">
							<g>
								<path id="E1-MJSZ2-28_1_" d="M-12869.2-1204.8c0,0,0,0.6,0,1.7c0,1.1,0.1,2.1,0.3,3.1c0.2,1,0.4,1.8,0.7,2.5
									s0.6,1.3,0.9,1.9c0.4,0.6,0.7,1,1,1.3c0.3,0.3,0.6,0.6,0.9,0.9h0.3c0,0,0.1-0.1,0.1-0.1c0,0-0.1-0.1-0.2-0.2
									s-0.3-0.3-0.4-0.5c-0.2-0.2-0.4-0.5-0.6-0.8c-0.2-0.3-0.4-0.7-0.7-1.3s-0.4-1.1-0.6-1.7c-0.2-0.6-0.3-1.4-0.5-2.2
									s-0.2-1.8-0.2-2.8c0-0.8,0-1.5,0.1-2.1c0.1-1,0.3-2,0.5-2.8c0.2-0.9,0.5-1.6,0.8-2.1s0.6-1,0.8-1.4c0.3-0.4,0.5-0.7,0.7-0.8
									c0.2-0.2,0.3-0.3,0.3-0.3c0,0,0-0.1-0.1-0.1h-0.3c-0.3,0.3-0.6,0.6-0.9,0.9c-0.3,0.3-0.6,0.8-1,1.3s-0.7,1.2-0.9,1.9
									c-0.3,0.7-0.5,1.5-0.7,2.5L-12869.2-1204.8z"/>
							</g>
							<g transform="translate(602,0)">
								<g transform="translate(120,0)">
									<rect x="-13585.4" y="-1202.8" width="13" height="-0.6"/>
									<g transform="translate(60,605)">
										<g transform="scale(0.707)">
											<path id="E1-MJMATHI-6D_1_" d="M-13644.6-1802.1c0,0,0,0.1,0,0.1c0,0.1,0,0.1,0.1,0.3s0.1,0.3,0.2,0.4
												c0.1,0.1,0.1,0.2,0.2,0.3c0.1,0.1,0.2,0.1,0.3,0.1c0.1,0,0.2,0,0.3-0.1c0.1,0,0.2-0.1,0.2-0.1s0.1-0.1,0.1-0.2
												c0-0.1,0.1-0.1,0.1-0.1l0-0.1c0,0,0,0,0,0l0.1,0.1c0.3,0.3,0.7,0.5,1.1,0.5c0.1,0,0.2,0,0.2,0s0.1,0,0.2-0.1
												c0.1,0,0.1-0.1,0.1-0.1c0,0,0.1-0.1,0.1-0.1c0,0,0.1-0.1,0.1-0.1c0,0,0-0.1,0.1-0.1c0,0,0-0.1,0-0.1c0,0,0,0,0-0.1
												s0,0,0-0.1l0.1,0.1c0.3,0.4,0.7,0.6,1.1,0.6c0.3,0,0.5-0.1,0.7-0.2c0.2-0.1,0.3-0.3,0.3-0.6c0-0.3-0.1-0.7-0.3-1.2
												s-0.3-0.9-0.3-1c0-0.1,0-0.1,0-0.1c0,0,0.1,0,0.1,0c0.1,0,0.3,0.1,0.4,0.2c0.1,0.2,0.2,0.4,0.3,0.6c0,0.1,0,0.1,0,0.1
												c0,0,0.1,0,0.1,0c0.1,0,0.2,0,0.2-0.1c0,0,0,0,0-0.1c0-0.1-0.1-0.3-0.2-0.4c-0.1-0.1-0.2-0.3-0.3-0.4s-0.3-0.2-0.5-0.2
												c-0.2,0-0.4,0.1-0.5,0.2c-0.1,0.1-0.2,0.3-0.2,0.4c0,0.1,0.1,0.4,0.3,0.9s0.3,0.9,0.3,1.2c0,0.3-0.1,0.4-0.3,0.4h0
												c-0.4,0-0.8-0.3-1.1-0.8l-0.1-0.1l-0.3-1c-0.2-0.7-0.3-1-0.3-1.1c-0.1-0.1-0.2-0.2-0.3-0.2c-0.1,0-0.1,0-0.2,0.1
												c0,0-0.1,0.1-0.1,0.1c0,0,0,0.1,0,0.1c0,0.1,0.1,0.4,0.3,1.1l0.3,1.1c0,0.1,0,0.2,0,0.3c0,0.3-0.1,0.4-0.3,0.4h0
												c-0.4,0-0.8-0.3-1.1-0.8l-0.1-0.1l-0.3-1c-0.2-0.7-0.3-1-0.3-1.1c-0.1-0.1-0.2-0.2-0.3-0.2c-0.1,0-0.1,0-0.2,0
												c0,0-0.1,0.1-0.1,0.1s0,0.1,0,0.1c0,0.1,0.1,0.5,0.3,1.2c0.2,0.8,0.3,1.2,0.3,1.2c0,0.1,0,0.1,0,0.2
												c0,0.2-0.1,0.3-0.2,0.3c-0.1,0-0.2-0.1-0.3-0.2c-0.1-0.1-0.1-0.3-0.2-0.5c0-0.2-0.1-0.3-0.1-0.3c0,0-0.1,0-0.1,0
												L-13644.6-1802.1C-13644.6-1802.1-13644.6-1802.1-13644.6-1802.1z"/>
										</g>
										<g transform="scale(0.707)">
											<path id="E1-MJMATHI-3C6_2_" d="M-13637.3-1802.7c0-0.2,0-0.3,0.1-0.5s0.2-0.2,0.3-0.3c0.1-0.1,0.2-0.1,0.3-0.2
												c0.1,0,0.2-0.1,0.3-0.1l0.1,0l0,0l0.1,0.3c0.1,0.3,0.2,0.5,0.3,0.8c0.1,0.2,0.2,0.4,0.3,0.7c0.1,0.2,0.2,0.4,0.4,0.6
												c0.1,0.1,0.3,0.3,0.4,0.4c0.2,0.1,0.4,0.1,0.6,0.1c0.2,0,0.4-0.1,0.6-0.2c0.2-0.2,0.3-0.4,0.3-0.8c0-0.4-0.1-0.8-0.3-1.1
												c-0.2-0.4-0.5-0.7-0.9-0.9c-0.4-0.2-0.8-0.3-1.2-0.3c-0.1,0-0.2,0-0.2,0l-0.1-0.3c0-0.2-0.1-0.4-0.1-0.6
												c0-0.2-0.1-0.3-0.1-0.4c0-0.1-0.1-0.2-0.2-0.3c-0.1,0-0.1,0-0.2,0c-0.2,0-0.2,0.1-0.2,0.3c0,0.1,0.1,0.5,0.4,1.4l0,0
												c0,0-0.1,0-0.1,0c0,0-0.1,0-0.2,0.1c-0.1,0-0.1,0.1-0.2,0.1s-0.1,0.1-0.2,0.1s-0.1,0.1-0.2,0.2c-0.1,0.1-0.1,0.2-0.2,0.2
												c-0.1,0.1-0.1,0.2-0.1,0.3s0,0.2,0,0.4c0,0.2,0.1,0.5,0.2,0.9c0.1,0.4,0.3,0.7,0.6,0.9h0.1c0.1,0,0.2,0,0.2-0.1
												c0,0,0-0.1-0.1-0.1c-0.2-0.2-0.4-0.5-0.5-0.8C-13637.3-1802.3-13637.3-1802.5-13637.3-1802.7z M-13633.7-1802.2
												c0,0.2-0.1,0.4-0.2,0.5c-0.1,0.1-0.3,0.2-0.5,0.2c-0.2,0-0.5-0.1-0.7-0.3s-0.4-0.5-0.5-0.8c-0.1-0.2-0.1-0.4-0.2-0.8
												l-0.1-0.3c0.1,0,0.1,0,0.2,0c0.6,0,1.1,0.2,1.5,0.5C-13633.9-1802.9-13633.7-1802.6-13633.7-1802.2z"/>
										</g>
									</g>
									<g transform="scale(0.707)">
										<path id="E1-MJMAIN-34_1_" d="M-13577.3-1210.4c-0.1,0-0.4,0-1,0c-0.6,0-0.9,0-1,0h-0.1v0.3h0.2c0.1,0,0.2,0,0.2,0
											c0,0,0.1,0,0.1,0s0.1,0,0.1,0c0,0,0,0,0.1,0.1c0,0,0,0.1,0,0.4v0.4h-2v0.3l1.1,1.8c0.8,1.2,1.2,1.8,1.2,1.8
											c0,0,0.1,0,0.2,0h0.1l0,0v-3.5h0.7v-0.3h-0.7v-0.4c0-0.2,0-0.3,0-0.4c0,0,0-0.1,0-0.1c0,0,0.2-0.1,0.4-0.1h0.2
											L-13577.3-1210.4L-13577.3-1210.4z M-13578.6-1208.8v2.5l-1.7-2.5l0.8,0H-13578.6z"/>
									</g>
								</g>
							</g>
							<g>
								<path id="E1-MJSZ2-29_1_" d="M-12848.7-1193.6c0,0.1,0.1,0.1,0.2,0.1h0.1h0.1c0.3-0.3,0.6-0.6,0.9-0.9
									c0.3-0.3,0.6-0.8,1-1.3s0.7-1.2,0.9-1.9c0.3-0.7,0.5-1.5,0.7-2.5s0.3-2,0.3-3.1c0-1.1-0.1-2.1-0.3-3.1
									c-0.2-1-0.4-1.8-0.7-2.5c-0.3-0.7-0.6-1.3-0.9-1.9c-0.4-0.6-0.7-1-1-1.3c-0.3-0.3-0.6-0.6-0.9-0.9h-0.1c-0.1,0-0.2,0-0.2,0
									c0,0,0,0.1,0,0.1c0.2,0.2,0.5,0.5,0.8,1c1.2,1.7,2,3.8,2.2,6.5c0.1,0.6,0.1,1.3,0.1,2.1c0,0.8,0,1.5-0.1,2.1
									c-0.3,3.1-1.2,5.5-2.9,7.3C-12848.7-1193.6-12848.7-1193.6-12848.7-1193.6z"/>
							</g>
						</g>
					</g>
					<g>
						<path id="E1-MJMATHI-62" d="M-11562.1-41.3c0,0.1,0,0.2,0,0.2s0.1,0.1,0.1,0.1c0,0,0.3,0,0.8,0.1c0.5,0,0.8,0.1,0.8,0.1
							c0.1,0,0.1,0,0.1-0.1c0-0.1-0.1-0.6-0.4-1.5c-0.1-0.2-0.1-0.5-0.2-0.8c-0.1-0.3-0.1-0.5-0.2-0.6l0-0.2c0,0,0,0,0.1,0
							c0.4,0.3,0.7,0.4,1.1,0.4c0.4,0,0.8-0.2,1.1-0.5s0.4-0.7,0.4-1.2c0-0.8-0.3-1.5-0.8-2.2c-0.6-0.6-1.2-1-1.8-1
							c-0.4,0-0.7,0.1-1,0.4c-0.3,0.3-0.4,0.7-0.5,1.3v0.1c0,0.2,0,0.4,0.1,0.6c0.1,0.3,0.2,1,0.5,2.1c0.4,1.4,0.5,2.2,0.5,2.2
							c0,0.1-0.1,0.1-0.4,0.2c0,0-0.1,0-0.1,0h-0.1c-0.1,0-0.1,0-0.1,0S-11562.1-41.4-11562.1-41.3
							C-11562.1-41.3-11562.1-41.3-11562.1-41.3z M-11559.3-44.7L-11559.3-44.7c0,0.6-0.2,0.9-0.7,0.9c-0.1,0-0.2,0-0.4-0.1
							s-0.2-0.1-0.4-0.2c-0.1-0.1-0.2-0.2-0.3-0.3s-0.1-0.2-0.2-0.2l-0.1-0.1l-0.2-0.9c-0.2-0.6-0.2-1.1-0.2-1.3
							c0-0.3,0.1-0.6,0.3-0.8c0.1-0.1,0.3-0.2,0.4-0.2c0.2,0,0.5,0.1,0.7,0.3c0.2,0.2,0.3,0.4,0.4,0.6s0.2,0.6,0.4,1.1
							S-11559.3-45-11559.3-44.7z"/>
					</g>
				</g>
			</g>
			<g transform="translate(4540,2338)">
				<g>
					<path id="E1-MJMAIN-2223_9_" d="M-15673.2-2364.2L-15673.2-2364.2c-0.1,0-0.2,0.1-0.2,0.2v5.2l0,5.2c0.1,0.1,0.1,0.1,0.2,0.1
						c0.1,0,0.2-0.1,0.2-0.2v-10.4C-15673-2364.1-15673.1-2364.2-15673.2-2364.2L-15673.2-2364.2z"/>
				</g>
				<g transform="translate(0,-2638.7587831207065) scale(1,2.1970510304219824)">
					<g>
						<path id="E1-MJMAIN-2223_10_" d="M-15673.2,114.3L-15673.2,114.3c-0.1,0-0.2,0.1-0.2,0.2v5.2l0,5.2c0.1,0.1,0.1,0.1,0.2,0.1
							c0.1,0,0.2-0.1,0.2-0.2v-10.4C-15673,114.4-15673.1,114.3-15673.2,114.3L-15673.2,114.3z"/>
					</g>
				</g>
				<g>
					<path id="E1-MJMAIN-2223_11_" d="M-15673.2-2398.1L-15673.2-2398.1c-0.1,0-0.2,0.1-0.2,0.2v5.2l0,5.2c0.1,0.1,0.1,0.1,0.2,0.1
						c0.1,0,0.2-0.1,0.2-0.2v-10.4C-15673-2398.1-15673.1-2398.1-15673.2-2398.1L-15673.2-2398.1z"/>
				</g>
			</g>
			<g transform="translate(4823,2065)">
				<g transform="scale(0.707)">
					<path id="E1-MJMATHI-6E_1_" d="M-15954.5-2081.1c0,0,0,0.1,0,0.1c0,0.1,0,0.1,0.1,0.3s0.1,0.3,0.2,0.4c0,0.1,0.1,0.2,0.3,0.3
						c0.1,0.1,0.2,0.1,0.3,0.1c0.2,0,0.3,0,0.5-0.1c0.1-0.1,0.2-0.2,0.2-0.3s0-0.1,0-0.2c0,0,0,0,0,0l0.1,0.1
						c0.3,0.3,0.7,0.5,1.1,0.5c0.3,0,0.5-0.1,0.7-0.2c0.2-0.1,0.3-0.3,0.3-0.6s-0.1-0.7-0.3-1.2c-0.2-0.5-0.3-0.9-0.3-1
						c0-0.1,0-0.2,0.1-0.2c0,0,0.1,0,0.1,0c0.1,0,0.3,0.1,0.4,0.3c0.1,0.2,0.2,0.4,0.3,0.6c0,0,0.1,0.1,0.2,0.1c0.1,0,0.2,0,0.2-0.1
						c0,0,0,0,0-0.1c0-0.1-0.1-0.3-0.2-0.4s-0.2-0.3-0.3-0.4s-0.3-0.2-0.5-0.2c-0.2,0-0.4,0.1-0.5,0.2c-0.1,0.1-0.2,0.3-0.2,0.4
						c0,0.1,0.1,0.4,0.3,0.9c0.2,0.5,0.3,0.9,0.3,1.2c0,0.3-0.1,0.4-0.3,0.4h0c-0.4,0-0.8-0.3-1.1-0.8l-0.1-0.1l-0.3-1
						c-0.2-0.7-0.3-1-0.3-1.1c-0.1-0.1-0.2-0.2-0.3-0.2c-0.1,0-0.1,0-0.2,0c0,0-0.1,0.1-0.1,0.1c0,0,0,0.1,0,0.1
						c0,0.1,0.1,0.5,0.3,1.2c0.2,0.8,0.3,1.2,0.3,1.2c0,0,0,0.1,0,0.2c0,0.2-0.1,0.3-0.2,0.3c-0.2,0-0.4-0.3-0.5-0.8
						c0-0.1,0-0.2,0-0.2c0,0-0.1,0-0.1,0L-15954.5-2081.1C-15954.5-2081.1-15954.5-2081.1-15954.5-2081.1z"/>
				</g>
				<g transform="scale(0.574)">
					<path id="E1-MJMAIN-33" d="M-15949.3-2081.9c-0.1,0-0.2,0-0.3,0.1c-0.1,0.1-0.1,0.2-0.1,0.3c0,0.2,0.1,0.4,0.3,0.6
						c0.2,0.2,0.4,0.3,0.7,0.3c0.1,0,0.2,0,0.3,0c0.3,0,0.5-0.2,0.7-0.3c0.2-0.2,0.2-0.4,0.2-0.5c0-0.2-0.1-0.4-0.2-0.6
						c-0.1-0.2-0.3-0.3-0.6-0.4l0,0c0,0,0,0,0.1,0s0.1,0,0.2-0.1s0.2-0.1,0.2-0.1c0.3-0.2,0.5-0.5,0.5-0.9c0-0.3-0.1-0.6-0.4-0.9
						s-0.6-0.4-1-0.4c-0.3,0-0.6,0.1-0.9,0.3c-0.2,0.2-0.4,0.4-0.4,0.7c0,0.1,0,0.2,0.1,0.3c0.1,0.1,0.2,0.1,0.3,0.1
						c0.1,0,0.2,0,0.3-0.1c0.1-0.1,0.1-0.2,0.1-0.3c0,0,0-0.1,0-0.1c0,0,0-0.1,0-0.1s0-0.1-0.1-0.1c0,0-0.1,0-0.1,0c0,0,0,0-0.1,0
						s0,0,0,0l0,0c0.2-0.2,0.5-0.3,0.8-0.3c0.2,0,0.4,0.1,0.5,0.3c0.1,0.1,0.1,0.3,0.1,0.6v0.1c0,0.4-0.1,0.7-0.4,0.8
						c-0.1,0-0.2,0-0.4,0l-0.3,0l0,0c0,0,0,0,0,0.1c0,0.1,0,0.1,0,0.1c0.1,0,0.2,0,0.4,0c0.1,0,0.3,0.1,0.4,0.3
						c0.1,0.2,0.2,0.4,0.2,0.7v0c0,0.2-0.1,0.4-0.2,0.5c-0.1,0.1-0.2,0.1-0.3,0.1c-0.1,0-0.3,0-0.4-0.1c-0.1,0-0.2-0.1-0.2-0.1
						c0,0-0.1-0.1-0.1-0.1h0c0,0,0,0,0,0s0,0,0.1,0c0,0,0,0,0.1,0c0,0,0,0,0.1-0.1c0,0,0-0.1,0-0.1s0-0.1,0-0.1c0-0.1,0-0.2-0.1-0.2
						C-15949.1-2081.9-15949.2-2081.9-15949.3-2081.9z"/>
				</g>
			</g>
		</g>
		<g transform="translate(13640,2385)">
			<g>
				<path id="E1-MJSZ4-239E" d="M-16832.8-2400c0,0.1,0.1,0.1,0.2,0.1h0.1c0.1,0,0.2,0,0.2,0s0.1-0.1,0.2-0.2
					c0.7-0.9,1.4-1.8,1.9-2.8s1-2,1.4-3.1c0.4-1.1,0.7-2.1,0.9-3.1c0.3-1,0.4-2.1,0.6-3.2c0.1-1.1,0.2-2.2,0.3-3.1
					c0.1-0.9,0.1-2,0.1-3.1c0-0.4,0-0.6,0-0.6s0-0.1-0.1-0.1c0,0-0.3,0-0.7,0c-0.3,0-0.5,0-0.5,0c0,0,0,0-0.1,0.1s0,0.2,0,0.4
					c0,3.9-0.3,7.3-0.9,10.2c-0.6,2.9-1.6,5.3-2.9,7.5c-0.1,0.2-0.2,0.4-0.4,0.7C-16832.6-2400.2-16832.8-2400.1-16832.8-2400z"/>
			</g>
			<g transform="translate(0,-2469.0228325130142) scale(1,1.1129400524403454)">
				<g>
					<path id="E1-MJSZ4-239F" d="M-16826.9,38.2C-16826.9,38.2-16826.9,38.2-16826.9,38.2c-0.1,0-0.2,0-0.3,0c-0.1,0-0.2,0-0.4,0
						c-0.4,0-0.6,0-0.6,0c0,0,0,0,0,0c0,0.1,0,0.5,0,1.4v1.9c0,2.2,0,3.3,0,3.3l0,0c0,0,0.3,0,0.8,0c0.1,0,0.2,0,0.3,0
						c0.1,0,0.1,0,0.2,0s0.1,0,0.1,0c0,0,0-0.1,0-0.2s0-0.5,0-1.3v-3.7C-16826.8,38.7-16826.9,38.2-16826.9,38.2z"/>
				</g>
			</g>
			<g>
				<path id="E1-MJSZ4-23A0" d="M-16832.5-2445.6L-16832.5-2445.6c-0.2,0-0.3,0-0.3,0.1c0,0,0,0.1,0.1,0.1c0.2,0.3,0.5,0.6,0.7,1
					c1.3,2.1,2.3,4.6,2.9,7.5s0.9,6.3,0.9,10.2c0,0.3,0,0.5,0.1,0.5c0,0,0.2,0,0.6,0c0.4,0,0.6,0,0.6,0c0,0,0.1-0.1,0.1-0.1
					s0-0.3,0-0.6c0-1.3-0.1-2.5-0.1-3.7c-0.1-1.1-0.2-2.4-0.5-3.8c-0.2-1.4-0.5-2.7-0.9-3.9s-0.9-2.4-1.5-3.7
					c-0.6-1.3-1.4-2.4-2.3-3.5c-0.1-0.1-0.1-0.2-0.2-0.2S-16832.4-2445.6-16832.5-2445.6L-16832.5-2445.6z"/>
			</g>
		</g>
		<g transform="translate(14520,2112)">
			<g transform="scale(0.707)">
				<path id="E1-MJMAIN-2212" d="M-17703-2127.9C-17703-2127.9-17703-2127.9-17703-2127.9c0,0.2,0,0.2,0.1,0.3h4.4
					c0.1,0,0.1-0.1,0.1-0.2s0-0.1-0.1-0.2h-4.4C-17703-2128-17703-2127.9-17703-2127.9L-17703-2127.9z"/>
			</g>
			<g transform="translate(553,0)">
				<g transform="translate(120,0)">
					<rect x="-18369.4" y="-2127.5" width="8.7" height="-0.6"/>
					<g transform="scale(0.574)">
						<path id="E1-MJMAIN-31" d="M-18365.3-2122.1L-18365.3-2122.1c-0.1-0.1-0.2-0.1-0.3-0.1c-0.1,0-0.2,0-0.4,0h-0.1v0.3h0.1
							c0.2,0,0.4,0,0.5,0.1s0.3,0.1,0.3,0.1c0.1,0,0.1,0.1,0.2,0.1c0,0,0,0,0.1,0c0,0,0.1,0,0.1,0v-1.8l0-1.9c0,0,0.1,0,0.1-0.1
							c0,0,0.1,0,0.1,0s0.2,0,0.4,0h0.2v-0.3h-0.1c-0.1,0-0.4,0-1,0c-0.6,0-0.9,0-1,0h-0.1v0.3h0.2c0.1,0,0.2,0,0.2,0s0.1,0,0.2,0
							s0.1,0,0.1,0c0,0,0,0,0,0s0,0,0,0c0,0,0,0,0,0V-2122.1z"/>
					</g>
					<g transform="translate(60,-278)">
						<g transform="scale(0.574)">
							<path id="E1-MJMATHI-6E_2_" d="M-18428.6-1853C-18428.6-1852.9-18428.6-1852.9-18428.6-1853c0,0.1,0.1,0.2,0.1,0.3
								c0,0.1,0.1,0.2,0.1,0.3c0,0.1,0.1,0.2,0.2,0.2c0.1,0.1,0.2,0.1,0.3,0.1c0.1,0,0.3,0,0.4-0.1c0.1-0.1,0.2-0.1,0.2-0.2
								c0-0.1,0-0.1,0-0.1c0,0,0,0,0,0l0.1,0.1c0.3,0.3,0.5,0.4,0.9,0.4c0.2,0,0.4-0.1,0.5-0.2c0.1-0.1,0.2-0.3,0.2-0.5
								c0-0.2-0.1-0.5-0.2-1c-0.2-0.4-0.2-0.7-0.2-0.8c0-0.1,0-0.2,0.1-0.2c0,0,0,0,0.1,0c0.1,0,0.2,0.1,0.3,0.2
								c0.1,0.1,0.2,0.3,0.2,0.5c0,0,0.1,0,0.1,0c0.1,0,0.1,0,0.1,0c0,0,0,0,0-0.1c0-0.1-0.1-0.2-0.1-0.4c-0.1-0.1-0.2-0.2-0.3-0.3
								c-0.1-0.1-0.3-0.2-0.4-0.2c-0.2,0-0.3,0.1-0.4,0.2c-0.1,0.1-0.1,0.2-0.1,0.3c0,0.1,0.1,0.3,0.2,0.7c0.1,0.4,0.2,0.7,0.2,0.9
								c0,0.2-0.1,0.4-0.3,0.4h0c-0.4,0-0.7-0.2-0.9-0.6l0-0.1l-0.2-0.8c-0.1-0.5-0.2-0.8-0.2-0.9c-0.1-0.1-0.1-0.2-0.3-0.2
								c-0.1,0-0.1,0-0.1,0c0,0-0.1,0-0.1,0.1c0,0,0,0,0,0.1c0,0.1,0.1,0.4,0.2,1c0.2,0.6,0.2,1,0.2,1c0,0,0,0.1,0,0.1
								c0,0.2,0,0.2-0.1,0.2c-0.2,0-0.3-0.2-0.4-0.6c0-0.1,0-0.1,0-0.1c0,0,0,0-0.1,0L-18428.6-1853
								C-18428.6-1853-18428.6-1853-18428.6-1853z"/>
						</g>
						<g transform="scale(0.574)">
							<path id="E1-MJMAIN-31_1_" d="M-18423.7-1853.2L-18423.7-1853.2c-0.1-0.1-0.2-0.1-0.3-0.1c-0.1,0-0.2,0-0.4,0h-0.1v0.3h0.1
								c0.2,0,0.4,0,0.5,0.1s0.3,0.1,0.3,0.1c0.1,0,0.1,0.1,0.2,0.1c0,0,0,0,0.1,0c0,0,0.1,0,0.1,0v-1.8l0-1.9c0,0,0.1,0,0.1-0.1
								c0,0,0.1,0,0.1,0c0.1,0,0.2,0,0.4,0h0.2v-0.3h-0.1c-0.1,0-0.4,0-1,0c-0.6,0-0.9,0-1,0h-0.1v0.3h0.2c0.1,0,0.2,0,0.2,0
								s0.1,0,0.2,0c0,0,0.1,0,0.1,0c0,0,0,0,0.1,0s0,0,0,0c0,0,0,0,0,0V-1853.2z"/>
						</g>
					</g>
				</g>
			</g>
		</g>
	</g>
</g>
</svg>
